<?xml version="1.0" encoding="utf-8"?>
<!-- Generator: Adobe Illustrator 18.1.1, SVG Export Plug-In . SVG Version: 6.00 Build 0)  -->
<svg version="1.1" id="Layer_1" xmlns="http://www.w3.org/2000/svg" xmlns:xlink="http://www.w3.org/1999/xlink" x="0px" y="0px"
	 viewBox="0 0 200 200" enable-background="new 0 0 200 200" xml:space="preserve">
<g display="none">
	<rect display="inline" fill="none" stroke="#888888" stroke-width="0.25" stroke-miterlimit="10" width="200" height="200"/>
	
		<line display="inline" fill="none" stroke="#888888" stroke-width="0.25" stroke-miterlimit="10" x1="0" y1="190" x2="200" y2="190"/>
	
		<line display="inline" fill="none" stroke="#888888" stroke-width="0.25" stroke-miterlimit="10" x1="0" y1="180" x2="200" y2="180"/>
	
		<line display="inline" fill="none" stroke="#888888" stroke-width="0.25" stroke-miterlimit="10" x1="0" y1="170" x2="200" y2="170"/>
	
		<line display="inline" fill="none" stroke="#888888" stroke-width="0.25" stroke-miterlimit="10" x1="0" y1="160" x2="200" y2="160"/>
	
		<line display="inline" fill="none" stroke="#888888" stroke-width="0.25" stroke-miterlimit="10" x1="0" y1="150" x2="200" y2="150"/>
	
		<line display="inline" fill="none" stroke="#888888" stroke-width="0.25" stroke-miterlimit="10" x1="0" y1="140" x2="200" y2="140"/>
	
		<line display="inline" fill="none" stroke="#888888" stroke-width="0.25" stroke-miterlimit="10" x1="0" y1="130" x2="200" y2="130"/>
	
		<line display="inline" fill="none" stroke="#888888" stroke-width="0.25" stroke-miterlimit="10" x1="0" y1="120" x2="200" y2="120"/>
	
		<line display="inline" fill="none" stroke="#888888" stroke-width="0.25" stroke-miterlimit="10" x1="0" y1="110" x2="200" y2="110"/>
	
		<line display="inline" fill="none" stroke="#888888" stroke-width="0.25" stroke-miterlimit="10" x1="0" y1="100" x2="200" y2="100"/>
	
		<line display="inline" fill="none" stroke="#888888" stroke-width="0.25" stroke-miterlimit="10" x1="0" y1="90" x2="200" y2="90"/>
	
		<line display="inline" fill="none" stroke="#888888" stroke-width="0.25" stroke-miterlimit="10" x1="0" y1="80" x2="200" y2="80"/>
	
		<line display="inline" fill="none" stroke="#888888" stroke-width="0.25" stroke-miterlimit="10" x1="0" y1="70" x2="200" y2="70"/>
	
		<line display="inline" fill="none" stroke="#888888" stroke-width="0.25" stroke-miterlimit="10" x1="0" y1="60" x2="200" y2="60"/>
	
		<line display="inline" fill="none" stroke="#888888" stroke-width="0.25" stroke-miterlimit="10" x1="0" y1="50" x2="200" y2="50"/>
	
		<line display="inline" fill="none" stroke="#888888" stroke-width="0.25" stroke-miterlimit="10" x1="0" y1="40" x2="200" y2="40"/>
	
		<line display="inline" fill="none" stroke="#888888" stroke-width="0.25" stroke-miterlimit="10" x1="0" y1="30" x2="200" y2="30"/>
	
		<line display="inline" fill="none" stroke="#888888" stroke-width="0.25" stroke-miterlimit="10" x1="0" y1="20" x2="200" y2="20"/>
	
		<line display="inline" fill="none" stroke="#888888" stroke-width="0.25" stroke-miterlimit="10" x1="0" y1="10" x2="200" y2="10"/>
	
		<line display="inline" fill="none" stroke="#888888" stroke-width="0.25" stroke-miterlimit="10" x1="190" y1="0" x2="190" y2="200"/>
	
		<line display="inline" fill="none" stroke="#888888" stroke-width="0.25" stroke-miterlimit="10" x1="180" y1="0" x2="180" y2="200"/>
	
		<line display="inline" fill="none" stroke="#888888" stroke-width="0.25" stroke-miterlimit="10" x1="170" y1="0" x2="170" y2="200"/>
	
		<line display="inline" fill="none" stroke="#888888" stroke-width="0.25" stroke-miterlimit="10" x1="160" y1="0" x2="160" y2="200"/>
	
		<line display="inline" fill="none" stroke="#888888" stroke-width="0.25" stroke-miterlimit="10" x1="150" y1="0" x2="150" y2="200"/>
	
		<line display="inline" fill="none" stroke="#888888" stroke-width="0.25" stroke-miterlimit="10" x1="140" y1="0" x2="140" y2="200"/>
	
		<line display="inline" fill="none" stroke="#888888" stroke-width="0.25" stroke-miterlimit="10" x1="130" y1="0" x2="130" y2="200"/>
	
		<line display="inline" fill="none" stroke="#888888" stroke-width="0.25" stroke-miterlimit="10" x1="120" y1="0" x2="120" y2="200"/>
	
		<line display="inline" fill="none" stroke="#888888" stroke-width="0.25" stroke-miterlimit="10" x1="110" y1="0" x2="110" y2="200"/>
	
		<line display="inline" fill="none" stroke="#888888" stroke-width="0.25" stroke-miterlimit="10" x1="100" y1="0" x2="100" y2="200"/>
	
		<line display="inline" fill="none" stroke="#888888" stroke-width="0.25" stroke-miterlimit="10" x1="90" y1="0" x2="90" y2="200"/>
	
		<line display="inline" fill="none" stroke="#888888" stroke-width="0.25" stroke-miterlimit="10" x1="80" y1="0" x2="80" y2="200"/>
	
		<line display="inline" fill="none" stroke="#888888" stroke-width="0.25" stroke-miterlimit="10" x1="70" y1="0" x2="70" y2="200"/>
	
		<line display="inline" fill="none" stroke="#888888" stroke-width="0.25" stroke-miterlimit="10" x1="60" y1="0" x2="60" y2="200"/>
	
		<line display="inline" fill="none" stroke="#888888" stroke-width="0.25" stroke-miterlimit="10" x1="50" y1="0" x2="50" y2="200"/>
	
		<line display="inline" fill="none" stroke="#888888" stroke-width="0.25" stroke-miterlimit="10" x1="40" y1="0" x2="40" y2="200"/>
	
		<line display="inline" fill="none" stroke="#888888" stroke-width="0.25" stroke-miterlimit="10" x1="30" y1="0" x2="30" y2="200"/>
	
		<line display="inline" fill="none" stroke="#888888" stroke-width="0.25" stroke-miterlimit="10" x1="20" y1="0" x2="20" y2="200"/>
	
		<line display="inline" fill="none" stroke="#888888" stroke-width="0.25" stroke-miterlimit="10" x1="10" y1="0" x2="10" y2="200"/>
</g>
<rect x="30" y="30" fill="#3C89C7" width="40" height="39.9"/>
<rect x="80" y="30" fill="#3C89C7" width="40" height="39.9"/>
<rect x="130" y="30" fill="#3C89C7" width="40" height="40"/>
<rect x="30" y="80" fill="#3C89C7" width="40" height="39.9"/>
<rect x="80" y="80" fill="#3C89C7" width="40" height="39.9"/>
<rect x="130" y="80" fill="#3C89C7" width="40" height="40"/>
<rect x="55" y="130" fill="#3C89C7" width="40" height="39.9"/>
<rect x="105" y="130" fill="#3C89C7" width="40" height="40"/>
</svg>
